<?xml version="1.0" standalone="no"?>
<!-- Generator: Adobe Fireworks 10, Export SVG Extension by Aaron Beall (http://fireworks.abeall.com) . Version: 0.6.1  -->
<!DOCTYPE svg PUBLIC "-//W3C//DTD SVG 1.1//EN" "http://www.w3.org/Graphics/SVG/1.1/DTD/svg11.dtd">
<svg id="A.fw-Page%201" viewBox="0 0 78 78" style="background-color:#ffffff00" version="1.1"
	xmlns="http://www.w3.org/2000/svg" xmlns:xlink="http://www.w3.org/1999/xlink" xml:space="preserve"
	x="0px" y="0px" width="78px" height="78px"
>
	<g id="Layer%201">
		<path d="M 39.5011 5.2025 C 30.1465 5.2025 21.679 8.4859 15.4696 14.6983 C 9.3407 20.9923 6.0625 29.5752 6.0625 39.0572 C 6.0625 47.9222 9.3407 56.6071 15.4696 63.0962 C 21.679 69.5011 30.1465 72.7975 39.5011 72.7975 C 48.8556 72.7975 57.3231 69.5011 63.5326 63.0962 C 69.6615 56.6071 72.9375 47.9222 72.9375 39.0572 C 72.9375 29.5752 69.6615 20.9923 63.5326 14.6983 C 57.3231 8.4859 48.8556 5.2025 39.5011 5.2025 L 39.5011 5.2025 ZM 61.1133 17.1505 C 66.6777 22.7089 70.0625 30.4743 70.0625 39.0572 C 70.0625 47.1244 66.6777 54.8374 61.1133 60.568 C 55.6296 66.3829 47.9686 69.9225 39.5011 69.9225 C 31.0336 69.9225 23.3725 66.3829 17.8888 60.568 C 12.3245 54.8374 8.9375 47.1244 8.9375 39.0572 C 8.9375 30.4743 12.3245 22.7089 17.8888 17.1505 C 23.3725 11.5103 31.0336 8.0776 39.5011 8.0776 C 47.9686 8.0776 55.6296 11.5103 61.1133 17.1505 L 61.1133 17.1505 ZM 58.694 58.1241 L 43.2913 19.521 L 35.0657 19.521 L 20.0662 58.1241 L 28.2917 58.1241 L 31.5175 48.9375 L 47.0009 48.9375 L 50.3072 58.1241 L 58.694 58.1241 L 58.694 58.1241 ZM 44.4203 43.0625 L 33.8561 43.0625 L 39.0979 28.676 L 44.4203 43.0625 L 44.4203 43.0625 Z" fill="#ffffff"/>
	</g>
</svg>