<?xml version="1.0" standalone="no"?>
<!-- Generator: Adobe Fireworks 10, Export SVG Extension by Aaron Beall (http://fireworks.abeall.com) . Version: 0.6.1  -->
<!DOCTYPE svg PUBLIC "-//W3C//DTD SVG 1.1//EN" "http://www.w3.org/Graphics/SVG/1.1/DTD/svg11.dtd">
<svg id="B.fw-Page%201" viewBox="0 0 78 78" style="background-color:#ffffff00" version="1.1"
	xmlns="http://www.w3.org/2000/svg" xmlns:xlink="http://www.w3.org/1999/xlink" xml:space="preserve"
	x="0px" y="0px" width="78px" height="78px"
>
	<g id="Layer%201">
		<path d="M 38.8748 5.2025 C 29.4 5.2025 21.1149 8.5063 15.1803 15.012 C 9.3229 21.3842 6.0625 29.504 6.0625 38.7064 C 6.0625 48.4121 9.3229 56.6321 15.1803 62.9887 C 21.1149 69.4944 29.4 72.7975 38.8748 72.7975 C 48.4205 72.7975 57.061 69.4944 63.3974 62.9887 C 69.6515 56.6321 72.9375 48.4121 72.9375 38.7064 C 72.9375 29.504 69.6515 21.3842 63.3974 15.012 C 57.061 8.5063 48.4205 5.2025 38.8748 5.2025 L 38.8748 5.2025 ZM 60.9287 17.58 C 66.6067 22.9265 70.0625 30.4166 70.0625 38.7064 C 70.0625 47.4561 66.6067 55.109 60.9287 60.4207 C 55.3329 66.3272 47.5153 69.9225 38.8748 69.9225 C 30.28 69.9225 22.7334 66.3272 17.4925 60.4207 C 12.1745 55.109 8.9375 47.4561 8.9375 38.7064 C 8.9375 30.4166 12.1745 22.9265 17.4925 17.58 C 22.7334 11.6735 30.28 8.0776 38.8748 8.0776 C 47.5153 8.0776 55.3329 11.6735 60.9287 17.58 L 60.9287 17.58 ZM 24.1199 20.0625 L 24.1199 57.9375 L 37.229 57.9375 C 42.331 57.865 45.5403 57.7925 46.857 57.6474 C 48.9142 57.5024 50.7246 56.9222 52.1236 56.0519 C 53.6048 55.109 54.7569 53.9486 55.5798 52.4256 C 55.488 50.7588 55.8801 48.9336 55.8801 47.0215 C 56.778 44.5879 56.1179 42.502 54.8801 40.7888 C 53.5588 39.227 51.7427 38.1858 49.3488 37.5164 C 50.9998 36.8471 52.4031 35.8059 53.3937 34.3988 C 54.3843 32.8225 54.8801 31.0803 54.8801 29.2552 C 54.8801 27.5959 54.4669 26.0196 53.6414 24.7625 C 52.8159 23.5874 51.8253 22.6327 50.587 21.8983 C 49.4313 21.1639 48.028 20.6498 46.4653 20.4295 C 44.9904 20.2092 42.6961 20.0625 39.5824 20.0625 L 24.1199 20.0625 L 24.1199 20.0625 ZM 31.8801 25.9375 L 36.3868 25.9375 C 40.0741 25.9375 42.3684 25.9375 43.1058 26.0196 C 44.4169 26.1856 45.4001 26.6833 46.0556 27.43 C 46.7112 28.1767 47.1199 29.1722 47.1199 30.4166 C 47.1199 31.6611 46.7112 32.7396 45.8918 33.4862 C 45.1543 34.2329 44.0891 34.7307 42.7781 34.8966 C 41.9587 34.9795 40.0741 35.0625 37.0423 35.0625 L 31.8801 35.0625 L 31.8801 25.9375 L 31.8801 25.9375 ZM 31.8801 40.9375 L 38.1894 40.9375 C 41.7948 40.9375 44.171 41.1113 45.2363 41.5459 C 46.3015 41.8936 47.1199 42.5889 47.6978 43.458 C 47.8011 44.3271 48.1199 45.3701 48.1199 46.5869 C 48.1199 48.0645 47.7215 49.2813 47.0051 50.1504 C 46.2886 51.0195 45.3333 51.541 44.2189 51.8018 C 43.5024 51.9756 41.7511 52.0625 38.9649 52.0625 L 31.8801 52.0625 L 31.8801 40.9375 L 31.8801 40.9375 Z" fill="#ffffff"/>
	</g>
</svg>