<?xml version="1.0" standalone="no"?>
<!-- Generator: Adobe Fireworks 10, Export SVG Extension by Aaron Beall (http://fireworks.abeall.com) . Version: 0.6.1  -->
<!DOCTYPE svg PUBLIC "-//W3C//DTD SVG 1.1//EN" "http://www.w3.org/Graphics/SVG/1.1/DTD/svg11.dtd">
<svg id="Dpad%20Down-Page%201" viewBox="0 0 78 78" style="background-color:#ffffff00" version="1.1"
	xmlns="http://www.w3.org/2000/svg" xmlns:xlink="http://www.w3.org/1999/xlink" xml:space="preserve"
	x="0px" y="0px" width="78px" height="78px"
>
	<g id="Layer%201">
		<path d="M 38.9993 73.9972 C 41.1436 73.9972 43.2055 73.8372 45.2673 73.5173 C 47.3291 73.1174 49.343 72.5575 51.0261 71.9176 L 51.9375 71.5176 L 51.9375 51.9375 L 71.7638 51.9375 L 72.1144 51.0258 C 72.6754 49.3427 73.1664 47.3306 73.517 45.2687 C 73.7975 43.2069 73.9375 41.145 73.9375 39.0007 C 73.9375 36.8564 73.7975 34.7945 73.517 32.7327 C 73.1664 30.6709 72.6754 28.657 72.1144 26.9739 L 71.7638 26.0625 L 51.9375 26.0625 L 51.9375 6.2362 L 51.0261 5.8856 C 49.343 5.3246 47.3291 4.8336 45.2673 4.483 C 43.2055 4.2025 41.1436 4.0625 38.9993 4.0625 C 36.855 4.0625 34.7931 4.2025 32.7313 4.483 C 30.6694 4.8336 28.6573 5.3246 26.9742 5.8856 L 26.0625 6.2362 L 26.0625 26.0625 L 7.2365 26.0625 L 6.8858 26.9739 C 6.3248 28.657 5.8339 30.6709 5.4833 32.7327 C 5.2027 34.7945 5.0625 36.8564 5.0625 39.0007 C 5.0625 41.145 5.2027 43.2069 5.4833 45.2687 C 5.8339 47.3306 6.3248 49.3427 6.8858 51.0258 L 7.2365 51.9375 L 26.0625 51.9375 L 26.0625 71.1093 L 26.9742 71.5104 C 28.6573 72.1521 30.6694 72.7136 32.7313 73.1147 C 34.7931 73.4356 36.855 73.596 38.9993 73.596 L 38.9993 73.9972 L 38.9993 73.9972 ZM 9.5204 49.0625 C 9.0456 47.6604 8.729 46.1759 8.4124 44.6914 C 8.0958 42.877 7.9375 40.9801 7.9375 39.0007 C 7.9375 37.0213 8.0958 35.1244 8.4124 33.31 C 8.729 31.8255 9.0456 30.341 9.5204 28.9375 L 28.9375 28.9375 L 28.9375 8.6086 C 30.3396 8.1076 31.8241 7.7735 33.3086 7.4395 C 35.123 7.1054 37.0199 6.9375 38.9993 6.9375 C 40.9787 6.9375 42.8756 7.1054 44.69 7.4395 C 46.1745 7.7735 47.659 8.1076 49.0625 8.6086 L 49.0625 28.9375 L 69.3914 28.9375 C 69.8924 30.341 70.2265 31.8255 70.5605 33.31 C 70.8946 35.1244 71.0625 37.0213 71.0625 39.0007 C 71.0625 40.9801 70.8946 42.877 70.5605 44.6914 C 70.2265 46.1759 69.8924 47.6604 69.3914 49.0625 L 9.5204 49.0625 L 9.5204 49.0625 ZM 38.9993 76.8775 C 49.7638 76.8775 59.2865 72.8741 66.4685 65.8953 C 73.3066 58.9968 76.9375 49.7635 76.9375 39.0007 C 76.9375 28.2362 73.3066 18.7135 66.4685 11.5315 C 59.2865 4.6934 49.7638 1.1225 38.9993 1.1225 C 28.2365 1.1225 19.0973 4.6934 12.2906 11.5315 C 5.6936 18.7135 1.0625 28.2362 1.0625 39.0007 C 1.0625 49.7635 5.6936 58.9968 12.2906 65.8953 C 19.0973 72.8741 28.2365 76.8775 38.9993 76.8775 L 38.9993 76.8775 ZM 13.0821 65.0932 C 6.6053 58.4353 1.9375 49.483 1.9375 39.0007 C 1.9375 28.5167 6.6053 19.2981 13.0821 12.3666 C 19.6513 5.6051 28.517 1.9975 38.9993 1.9975 C 49.4833 1.9975 58.7019 5.6051 65.6333 12.3666 C 72.3949 19.2981 76.0625 28.5167 76.0625 39.0007 C 76.0625 49.483 72.3949 58.4353 65.6333 65.0932 C 58.7019 71.8313 49.4833 76.0025 38.9993 76.0025 C 28.517 76.0025 19.6513 71.8313 13.0821 65.0932 L 13.0821 65.0932 Z" fill="#ffffff"/>
	</g>
</svg>