<?xml version="1.0" standalone="no"?>
<!-- Generator: Adobe Fireworks 10, Export SVG Extension by Aaron Beall (http://fireworks.abeall.com) . Version: 0.6.1  -->
<!DOCTYPE svg PUBLIC "-//W3C//DTD SVG 1.1//EN" "http://www.w3.org/Graphics/SVG/1.1/DTD/svg11.dtd">
<svg id="Dpad%20Up-Page%201" viewBox="0 0 78 78" style="background-color:#ffffff00" version="1.1"
	xmlns="http://www.w3.org/2000/svg" xmlns:xlink="http://www.w3.org/1999/xlink" xml:space="preserve"
	x="0px" y="0px" width="78px" height="78px"
>
	<g id="Layer%201">
		<path d="M 38.9993 4.0625 C 36.855 4.0625 34.7931 4.2217 32.7313 4.5416 C 30.6694 4.9415 28.6573 5.5015 26.9742 6.1413 L 26.0625 6.5413 L 26.0625 26.0625 L 7.2365 26.0625 L 6.8858 26.9739 C 6.3248 28.657 5.8339 30.6709 5.4833 32.7327 C 5.2027 34.7945 5.0625 36.8564 5.0625 39.0007 C 5.0625 41.145 5.2027 43.2069 5.4833 45.2687 C 5.8339 47.3306 6.3248 49.3427 6.8858 51.0258 L 7.2365 51.9375 L 26.0625 51.9375 L 26.0625 71.6235 L 26.9742 71.9741 C 28.6573 72.5351 30.6694 73.026 32.7313 73.3767 C 34.7931 73.6572 36.855 73.7975 38.9993 73.7975 C 41.1436 73.7975 43.2055 73.6572 45.2673 73.3767 C 47.3291 73.026 49.343 72.5351 51.0261 71.9741 L 51.9375 71.6235 L 51.9375 51.9375 L 71.7638 51.9375 L 72.1144 51.0258 C 72.6754 49.3427 73.1664 47.3306 73.517 45.2687 C 73.7975 43.2069 73.9375 41.145 73.9375 39.0007 C 73.9375 36.8564 73.7975 34.7945 73.517 32.7327 C 73.1664 30.6709 72.6754 28.657 72.1144 26.9739 L 71.7638 26.0625 L 51.9375 26.0625 L 51.9375 6.891 L 51.0261 6.4899 C 49.343 5.8482 47.3291 5.2867 45.2673 4.8856 C 43.2055 4.5648 41.1436 4.4043 38.9993 4.4043 L 38.9993 4.0625 L 38.9993 4.0625 ZM 69.3914 28.9375 C 69.8924 30.341 70.2265 31.8255 70.5605 33.31 C 70.8946 35.1244 71.0625 37.0213 71.0625 39.0007 C 71.0625 40.9801 70.8946 42.877 70.5605 44.6914 C 70.2265 46.1759 69.8924 47.6604 69.3914 49.0625 L 49.0625 49.0625 L 49.0625 69.2644 C 47.659 69.7618 46.1745 70.0934 44.69 70.425 C 42.8756 70.7567 40.9787 70.9225 38.9993 70.9225 C 37.0199 70.9225 35.123 70.7567 33.3086 70.425 C 31.8241 70.0934 30.3396 69.7618 28.9375 69.2644 L 28.9375 49.0625 L 9.5204 49.0625 C 9.0456 47.6604 8.729 46.1759 8.4124 44.6914 C 8.0958 42.877 7.9375 40.9801 7.9375 39.0007 C 7.9375 37.0213 8.0958 35.1244 8.4124 33.31 C 8.729 31.8255 9.0456 30.341 9.5204 28.9375 L 69.3914 28.9375 L 69.3914 28.9375 ZM 38.9993 1.1225 C 28.2365 1.1225 19.0973 5.1263 12.2906 12.105 C 5.6936 19.0035 1.0625 28.2362 1.0625 39.0007 C 1.0625 49.7635 5.6936 59.2334 12.2906 66.3629 C 19.0973 73.1663 28.2365 76.8775 38.9993 76.8775 C 49.7638 76.8775 59.2865 73.1663 66.4685 66.3629 C 73.3066 59.2334 76.9375 49.7635 76.9375 39.0007 C 76.9375 28.2362 73.3066 19.0035 66.4685 12.105 C 59.2865 5.1263 49.7638 1.1225 38.9993 1.1225 L 38.9993 1.1225 ZM 65.6333 12.9072 C 72.3949 19.565 76.0625 28.5167 76.0625 39.0007 C 76.0625 49.483 72.3949 58.6531 65.6333 65.5339 C 58.7019 72.2546 49.4833 76.0025 38.9993 76.0025 C 28.517 76.0025 19.6513 72.2546 13.0821 65.5339 C 6.6053 58.6531 1.9375 49.483 1.9375 39.0007 C 1.9375 28.5167 6.6053 19.565 13.0821 12.9072 C 19.6513 6.1691 28.517 1.9975 38.9993 1.9975 C 49.4833 1.9975 58.7019 6.1691 65.6333 12.9072 L 65.6333 12.9072 Z" fill="#ffffff"/>
	</g>
</svg>