<?xml version="1.0" standalone="no"?>
<!-- Generator: Adobe Fireworks 10, Export SVG Extension by Aaron Beall (http://fireworks.abeall.com) . Version: 0.6.1  -->
<!DOCTYPE svg PUBLIC "-//W3C//DTD SVG 1.1//EN" "http://www.w3.org/Graphics/SVG/1.1/DTD/svg11.dtd">
<svg id="Left%20Thumbstick-Page%201" viewBox="0 0 78 78" style="background-color:#ffffff00" version="1.1"
	xmlns="http://www.w3.org/2000/svg" xmlns:xlink="http://www.w3.org/1999/xlink" xml:space="preserve"
	x="0px" y="0px" width="78px" height="78px"
>
	<g id="Layer%201">
		<path d="M 39.5 9.0625 C 31.5083 9.0625 23.4778 11.9375 18.1964 18.1963 C 12.9375 23.1828 10.0625 30.5435 10.0625 38.5 C 10.0625 47.2859 12.9375 54.566 18.1964 59.8036 C 23.4778 66.0625 31.5083 68.9375 39.5 68.9375 C 47.4565 68.9375 54.8172 66.0625 59.8037 59.8036 C 66.0625 54.566 68.9375 47.2859 68.9375 38.5 C 68.9375 30.5435 66.0625 23.1828 59.8037 18.1963 C 54.8172 11.9375 47.4565 9.0625 39.5 9.0625 L 39.5 9.0625 ZM 33.0625 48.9375 L 48.248 48.9375 L 48.248 46.0625 L 36.9375 46.0625 L 36.9375 26.9819 L 33.0625 26.9819 L 33.0625 48.9375 L 33.0625 48.9375 ZM 39.9375 18.0625 L 39.9375 11.9375 C 41.1247 11.9375 42.2328 12.0313 43.3408 12.314 L 42.4702 18.2632 C 41.5996 18.1293 40.8081 18.0625 39.9375 18.0625 L 39.9375 18.0625 ZM 43.5783 18.3972 L 44.4489 12.5024 C 45.557 12.7852 46.665 13.1621 47.7731 13.5391 L 46.0318 18.9999 C 45.2404 18.732 44.3698 18.5981 43.5783 18.3972 L 43.5783 18.3972 ZM 47.0608 19.2678 L 48.802 14.0103 C 49.9101 14.4814 50.939 15.1411 51.9679 15.7065 L 49.356 20.2543 C 48.6437 19.8705 47.8522 19.5357 47.0608 19.2678 L 47.0608 19.2678 ZM 50.3058 20.8084 L 52.9177 16.3662 C 53.8674 17.1201 54.8172 17.874 55.6878 18.5311 L 52.3636 22.233 C 51.7305 21.7581 51.0181 21.2833 50.3058 20.8084 L 50.3058 20.8084 ZM 53.2343 22.9454 L 56.5584 19.1339 C 56.9542 19.4687 57.4291 19.8036 57.8248 20.1752 C 58.1964 20.5709 58.5313 21.0458 58.8661 21.4416 L 55.0546 24.7657 C 54.7381 24.4492 54.4215 24.1326 54.184 23.816 C 53.8674 23.5785 53.5508 23.2619 53.2343 22.9454 L 53.2343 22.9454 ZM 55.767 25.6364 L 59.4689 22.3122 C 60.126 23.1828 60.8799 24.1326 61.6338 25.0823 L 57.1916 27.6942 C 56.7167 26.9819 56.2419 26.2695 55.767 25.6364 L 55.767 25.6364 ZM 57.7457 28.644 L 62.2934 26.0321 C 62.8589 27.061 63.5185 28.0899 63.9897 29.198 L 58.7322 30.9392 C 58.4643 30.1478 58.1294 29.3563 57.7457 28.644 L 57.7457 28.644 ZM 59.0001 31.9682 L 64.4609 30.2269 C 64.8379 31.335 65.2148 32.443 65.4975 33.5511 L 59.6028 34.4217 C 59.4019 33.6302 59.2679 32.7596 59.0001 31.9682 L 59.0001 31.9682 ZM 59.7367 35.5298 L 65.686 34.6592 C 65.9687 35.7672 66.0625 36.8753 66.0625 38.0625 L 59.9375 38.0625 C 59.9375 37.1919 59.8707 36.4004 59.7367 35.5298 L 59.7367 35.5298 ZM 59.9375 38.9375 L 66.0625 38.9375 C 66.0625 40.3624 65.9687 41.6924 65.686 43.0225 L 59.7367 41.9774 C 59.8707 40.9324 59.9375 39.9824 59.9375 38.9375 L 59.9375 38.9375 ZM 59.6028 43.3075 L 65.4975 44.3525 C 65.2148 45.6825 64.8379 46.6741 64.4609 47.5305 L 59.0001 46.1848 C 59.2679 45.3025 59.4019 44.2575 59.6028 43.3075 L 59.6028 43.3075 ZM 58.7322 46.98 L 63.9897 48.3258 C 63.5185 49.2785 62.8589 50.3872 62.2934 51.4958 L 57.7457 48.754 C 58.1294 48.2034 58.4643 47.5917 58.7322 46.98 L 58.7322 46.98 ZM 57.1916 49.7049 L 61.6338 52.5192 C 60.8799 53.5426 60.126 54.566 59.4689 55.5041 L 55.767 51.9222 C 56.2419 51.24 56.7167 50.4725 57.1916 49.7049 L 57.1916 49.7049 ZM 55.0546 52.8603 L 58.8661 56.4422 C 58.5313 56.8686 58.1964 57.3802 57.8248 57.8067 C 57.4291 58.1963 56.9542 58.5311 56.5584 58.866 L 53.2343 54.8218 C 53.5508 54.4807 53.8674 54.1396 54.184 53.8837 C 54.4215 53.5426 54.7381 53.2015 55.0546 52.8603 L 55.0546 52.8603 ZM 52.3636 55.5893 L 55.6878 59.4687 C 54.8172 60.1255 53.8674 60.8794 52.9177 61.6333 L 50.3058 57.1244 C 51.0181 56.6127 51.7305 56.101 52.3636 55.5893 L 52.3636 55.5893 ZM 49.356 57.7214 L 51.9679 62.293 C 50.939 62.8584 49.9101 63.5181 48.802 63.9892 L 47.0608 58.732 C 47.8522 58.4642 48.6437 58.1293 49.356 57.7214 L 49.356 57.7214 ZM 46.0318 58.9999 L 47.7731 64.4604 C 46.665 64.8374 45.557 65.2143 44.4489 65.4971 L 43.5783 59.6027 C 44.3698 59.4017 45.2404 59.2678 46.0318 58.9999 L 46.0318 58.9999 ZM 42.4702 59.7366 L 43.3408 65.6855 C 42.2328 65.9682 41.1247 66.0625 39.9375 66.0625 L 39.9375 59.9375 C 40.8081 59.9375 41.5996 59.8705 42.4702 59.7366 L 42.4702 59.7366 ZM 39.0625 59.9375 L 39.0625 66.0625 C 37.4687 66.0625 36.3254 65.9682 35.3737 65.6855 L 36.1215 59.7366 C 36.8692 59.8705 37.8937 59.9375 39.0625 59.9375 L 39.0625 59.9375 ZM 35.1698 59.6027 L 34.422 65.4971 C 33.4704 65.2143 32.3718 64.8374 31.1629 64.4604 L 33.0625 58.9999 C 33.7423 59.2678 34.49 59.4017 35.1698 59.6027 L 35.1698 59.6027 ZM 31.9401 58.732 L 30.0404 63.9892 C 28.8315 63.5181 27.709 62.8584 26.5864 62.293 L 29.4359 57.7214 C 30.2131 58.1293 31.0766 58.4642 31.9401 58.732 L 31.9401 58.732 ZM 28.3997 57.1244 L 25.5502 61.6333 C 24.514 60.8794 23.4778 60.1255 22.528 59.4687 L 26.1547 55.5893 C 26.8455 56.101 27.6226 56.6127 28.3997 57.1244 L 28.3997 57.1244 ZM 25.2048 54.8218 L 21.5781 58.866 C 21.1464 58.5311 20.6283 58.1963 20.1965 57.8067 C 19.8037 57.3802 19.4689 56.8686 19.134 56.4422 L 23.2188 52.8603 C 23.5642 53.2015 23.9096 53.5426 24.1686 53.8837 C 24.514 54.1396 24.8594 54.4807 25.2048 54.8218 L 25.2048 54.8218 ZM 22.4416 51.9222 L 18.5313 55.5041 C 17.9046 54.566 17.2738 53.5426 16.6431 52.5192 L 20.8873 49.7049 C 21.4054 50.4725 21.9235 51.24 22.4416 51.9222 L 22.4416 51.9222 ZM 20.2829 48.754 L 16.0912 51.4958 C 15.6181 50.3872 15.0662 49.2785 14.672 48.3258 L 19.268 46.98 C 19.5358 47.5917 19.8707 48.2034 20.2829 48.754 L 20.2829 48.754 ZM 19.0001 46.1848 L 14.2778 47.5305 C 13.9624 46.6741 13.6471 45.6825 13.4106 44.3525 L 18.3973 43.3075 C 18.5983 44.2575 18.7322 45.3025 19.0001 46.1848 L 19.0001 46.1848 ZM 18.2634 41.9774 L 13.2529 43.0225 C 13.0163 41.6924 12.9375 40.3624 12.9375 38.9375 L 18.0625 38.9375 C 18.0625 39.9824 18.1295 40.9324 18.2634 41.9774 L 18.2634 41.9774 ZM 18.0625 38.0625 L 12.9375 38.0625 C 12.9375 36.8753 13.0163 35.7672 13.2529 34.6592 L 18.2634 35.5298 C 18.1295 36.4004 18.0625 37.1919 18.0625 38.0625 L 18.0625 38.0625 ZM 18.3973 34.4217 L 13.4106 33.5511 C 13.6471 32.443 13.9624 31.335 14.2778 30.2269 L 19.0001 31.9682 C 18.7322 32.7596 18.5983 33.6302 18.3973 34.4217 L 18.3973 34.4217 ZM 19.268 30.9392 L 14.672 29.198 C 15.0662 28.0899 15.6181 27.061 16.0912 26.0321 L 20.2829 28.644 C 19.8707 29.3563 19.5358 30.1478 19.268 30.9392 L 19.268 30.9392 ZM 20.8873 27.6942 L 16.6431 25.0823 C 17.2738 24.1326 17.9046 23.1828 18.5313 22.3122 L 22.4416 25.6364 C 21.9235 26.2695 21.4054 26.9819 20.8873 27.6942 L 20.8873 27.6942 ZM 23.2188 24.7657 L 19.134 21.4416 C 19.4689 21.0458 19.8037 20.5709 20.1965 20.1752 C 20.6283 19.8036 21.1464 19.4687 21.5781 19.1339 L 25.2048 22.9454 C 24.8594 23.2619 24.514 23.5785 24.1686 23.816 C 23.9096 24.1326 23.5642 24.4492 23.2188 24.7657 L 23.2188 24.7657 ZM 26.1547 22.233 L 22.528 18.5311 C 23.4778 17.874 24.514 17.1201 25.5502 16.3662 L 28.3997 20.8084 C 27.6226 21.2833 26.8455 21.7581 26.1547 22.233 L 26.1547 22.233 ZM 29.4359 20.2543 L 26.5864 15.7065 C 27.709 15.1411 28.8315 14.4814 30.0404 14.0103 L 31.9401 19.2678 C 31.0766 19.5357 30.2131 19.8705 29.4359 20.2543 L 29.4359 20.2543 ZM 33.0625 18.9999 L 31.1629 13.5391 C 32.3718 13.1621 33.4704 12.7852 34.422 12.5024 L 35.1698 18.3972 C 34.49 18.5981 33.7423 18.732 33.0625 18.9999 L 33.0625 18.9999 ZM 36.1215 18.2632 L 35.3737 12.314 C 36.3254 12.0313 37.4687 11.9375 39.0625 11.9375 L 39.0625 18.0625 C 37.8937 18.0625 36.8692 18.1293 36.1215 18.2632 L 36.1215 18.2632 ZM 52.6011 25.3989 C 56.0044 28.8023 58.0625 33.472 58.0625 38.5 C 58.0625 44.4475 56.0044 48.6317 52.6011 52.1781 C 49.1977 55.8452 44.528 58.0625 39.5 58.0625 C 34.3541 58.0625 29.6086 55.8452 25.8956 52.1781 C 22.1826 48.6317 19.9375 44.4475 19.9375 38.5 C 19.9375 33.472 22.1826 28.8023 25.8956 25.3989 C 29.6086 21.9956 34.3541 19.9375 39.5 19.9375 C 44.528 19.9375 49.1977 21.9956 52.6011 25.3989 L 52.6011 25.3989 ZM 39.5 1.1225 C 28.9178 1.1225 18.9331 4.9922 12.3898 11.3899 C 5.3819 18.933 1.0625 28.1691 1.0625 38.5 C 1.0625 49.1932 5.3819 59.0669 12.3898 66.6102 C 18.9331 73.0074 28.9178 76.8775 39.5 76.8775 C 49.8309 76.8775 59.067 73.0074 66.6101 66.6102 C 73.0417 59.0669 76.9375 49.1932 76.9375 38.5 C 76.9375 28.1691 73.0417 18.933 66.6101 11.3899 C 59.067 4.9922 49.8309 1.1225 39.5 1.1225 L 39.5 1.1225 ZM 65.8745 12.1255 C 72.035 19.4017 76.0625 28.4857 76.0625 38.5 C 76.0625 48.8763 72.035 58.5981 65.8745 65.874 C 58.5982 72.009 49.5143 76.0025 39.5 76.0025 C 29.2632 76.0025 19.4019 72.009 13.0952 65.874 C 6.53 58.5981 1.9375 48.8763 1.9375 38.5 C 1.9375 28.4857 6.53 19.4017 13.0952 12.1255 C 19.4019 5.9906 29.2632 1.9975 39.5 1.9975 C 49.5143 1.9975 58.5982 5.9906 65.8745 12.1255 L 65.8745 12.1255 Z" fill="#ffffff"/>
	</g>
</svg>