<?xml version="1.0" standalone="no"?>
<!-- Generator: Adobe Fireworks 10, Export SVG Extension by Aaron Beall (http://fireworks.abeall.com) . Version: 0.6.1  -->
<!DOCTYPE svg PUBLIC "-//W3C//DTD SVG 1.1//EN" "http://www.w3.org/Graphics/SVG/1.1/DTD/svg11.dtd">
<svg id="Left%20Trigger.fw-Page%201" viewBox="0 0 78 78" style="background-color:#ffffff00" version="1.1"
	xmlns="http://www.w3.org/2000/svg" xmlns:xlink="http://www.w3.org/1999/xlink" xml:space="preserve"
	x="0px" y="0px" width="78px" height="78px"
>
	<g id="Layer%201">
		<path d="M 12.1506 69.9225 C 12.0324 65.6106 11.9375 61.3992 11.9375 57.426 C 11.9375 45.3636 12.9266 34.5577 17.3141 26.1513 C 22.9039 14.9605 34.157 8.0775 56.9996 8.0775 C 57.2843 8.0775 57.5707 8.0804 57.8589 8.0823 C 60.6787 10.7469 62.5586 17.9911 63.9258 28.5661 C 65.293 39.0586 65.9766 53.3286 66.0625 69.9225 L 12.1506 69.9225 L 12.1506 69.9225 ZM 67.4999 72.7975 C 68.3214 72.7975 68.9375 72.1814 68.9375 71.36 C 68.9375 56.9328 68.6636 41.9126 67.1577 28.1497 C 65.9766 16.1593 63.4985 8.0116 59.6533 5.5495 C 59.3115 5.3444 58.8843 5.2076 58.457 5.2076 C 58.0389 5.2043 57.6241 5.2025 57.2125 5.2025 C 32.7069 5.2025 20.5438 12.1963 14.2326 24.6525 C 9.913 33.8802 9.0625 45.1817 9.0625 57.8496 C 9.0625 62.3406 9.1527 67.0112 9.2555 71.4285 C 9.3253 72.1814 9.9532 72.7975 10.7206 72.7975 L 67.4999 72.7975 L 67.4999 72.7975 ZM 21.0625 57.9375 L 39.1333 57.9375 L 39.1333 54.0625 L 25.9375 54.0625 L 25.9375 33.2059 L 21.0625 33.2059 L 21.0625 57.9375 L 21.0625 57.9375 ZM 46.0625 57.9375 L 50.9375 57.9375 L 50.9375 36.9375 L 58.9697 36.9375 L 58.9697 33.0625 L 38.3086 33.0625 L 38.3086 36.9375 L 46.0625 36.9375 L 46.0625 57.9375 L 46.0625 57.9375 Z" fill="#ffffff"/>
	</g>
</svg>