<?xml version="1.0" standalone="no"?>
<!-- Generator: Adobe Fireworks 10, Export SVG Extension by Aaron Beall (http://fireworks.abeall.com) . Version: 0.6.1  -->
<!DOCTYPE svg PUBLIC "-//W3C//DTD SVG 1.1//EN" "http://www.w3.org/Graphics/SVG/1.1/DTD/svg11.dtd">
<svg id="Left%20Bumper.fw-Page%201" viewBox="0 0 78 78" style="background-color:#ffffff00" version="1.1"
	xmlns="http://www.w3.org/2000/svg" xmlns:xlink="http://www.w3.org/1999/xlink" xml:space="preserve"
	x="0px" y="0px" width="78px" height="78px"
>
	<g id="Layer%201">
		<path d="M 74.0625 25.573 L 74.0625 55.1039 C 74.0625 55.9201 73.815 56.6342 73.4005 57.2463 C 72.9032 57.7564 72.323 58.0625 71.6599 58.0625 L 7.1983 58.0625 C 6.5746 58.0625 6.0289 57.7564 5.5612 57.2463 C 5.1714 56.6342 4.9375 55.9201 4.9375 55.1039 L 4.9375 30.3148 C 13.5907 27.7804 23.4133 25.3277 32.3784 23.4473 C 41.0751 21.6487 49.3637 20.4223 55.1657 20.0953 C 57.0378 19.9941 58.6877 19.9399 60.1547 19.9399 C 63.4292 19.9399 65.7925 20.21 67.6814 20.8311 C 70.0851 21.6487 71.9086 23.1203 74.0625 25.573 L 74.0625 25.573 ZM 68.7589 17.943 C 66.5437 17.3163 63.8774 17.0625 60.2121 17.0625 C 58.6661 17.0625 56.9424 17.1077 54.9999 17.189 C 48.9492 17.4632 40.5778 18.5599 31.7548 20.0953 C 22.3219 22.0574 11.9536 24.6736 3.0892 27.3716 C 2.4732 27.6169 2.0625 28.2709 2.0625 29.0067 L 2.0625 55.1039 C 2.0625 57.0423 2.6101 58.6102 3.5 59.5 C 4.3898 60.3899 5.7171 60.9375 7.1983 60.9375 L 71.6599 60.9375 C 73.1519 60.9375 74.6785 60.3899 75.4999 59.5 C 76.3898 58.6102 76.9375 57.0423 76.9375 55.1039 L 76.9375 24.9189 C 76.9375 24.4284 76.7321 24.0196 76.4583 23.6926 C 74.1994 20.5858 71.9915 18.9026 68.7589 17.943 L 68.7589 17.943 ZM 33.0799 54.9001 L 53.7566 54.9001 L 53.7566 50.0999 L 38.9201 50.0999 L 38.9201 25.9818 L 33.0799 25.9818 L 33.0799 54.9001 L 33.0799 54.9001 Z" fill="#ffffff"/>
	</g>
</svg>