<?xml version="1.0" standalone="no"?>
<!-- Generator: Adobe Fireworks 10, Export SVG Extension by Aaron Beall (http://fireworks.abeall.com) . Version: 0.6.1  -->
<!DOCTYPE svg PUBLIC "-//W3C//DTD SVG 1.1//EN" "http://www.w3.org/Graphics/SVG/1.1/DTD/svg11.dtd">
<svg id="Menu.fw-Page%201" viewBox="0 0 78 78" style="background-color:#ffffff00" version="1.1"
	xmlns="http://www.w3.org/2000/svg" xmlns:xlink="http://www.w3.org/1999/xlink" xml:space="preserve"
	x="0px" y="0px" width="78px" height="78px"
>
	<g id="Layer%201">
		<path d="M 39.5011 5.2025 C 30.1465 5.2025 21.679 8.497 15.4696 14.8589 C 9.3407 21.3046 6.0625 29.2935 6.0625 38.9999 C 6.0625 48.7062 9.3407 56.6963 15.4696 63.142 C 21.679 69.5039 30.1465 72.7975 39.5011 72.7975 C 48.8556 72.7975 57.3231 69.5039 63.5326 63.142 C 69.6615 56.6963 72.9375 48.7062 72.9375 38.9999 C 72.9375 29.2935 69.6615 21.3046 63.5326 14.8589 C 57.3231 8.497 48.8556 5.2025 39.5011 5.2025 L 39.5011 5.2025 ZM 61.1133 17.3702 C 66.6777 23.0625 70.0625 30.2732 70.0625 38.9999 C 70.0625 47.7265 66.6777 54.9375 61.1133 60.6307 C 55.6296 66.4066 47.9686 69.9225 39.5011 69.9225 C 31.0336 69.9225 23.3725 66.4066 17.8888 60.6307 C 12.3245 54.9375 8.9375 47.7265 8.9375 38.9999 C 8.9375 30.2732 12.3245 23.0625 17.8888 17.3702 C 23.3725 11.5943 31.0336 8.0776 39.5011 8.0776 C 47.9686 8.0776 55.6296 11.5943 61.1133 17.3702 L 61.1133 17.3702 ZM 21.1145 23.0625 L 21.1145 28.9375 L 57.8876 28.9375 L 57.8876 23.0625 L 21.1145 23.0625 L 21.1145 23.0625 ZM 21.1145 36.0625 L 21.1145 41.9375 L 57.8876 41.9375 L 57.8876 36.0625 L 21.1145 36.0625 L 21.1145 36.0625 ZM 21.1145 49.0625 L 21.1145 54.9375 L 57.8876 54.9375 L 57.8876 49.0625 L 21.1145 49.0625 L 21.1145 49.0625 Z" fill="#ffffff"/>
	</g>
</svg>