<?xml version="1.0" standalone="no"?>
<!-- Generator: Adobe Fireworks 10, Export SVG Extension by Aaron Beall (http://fireworks.abeall.com) . Version: 0.6.1  -->
<!DOCTYPE svg PUBLIC "-//W3C//DTD SVG 1.1//EN" "http://www.w3.org/Graphics/SVG/1.1/DTD/svg11.dtd">
<svg id="Right%20Thumbstick-Page%201" viewBox="0 0 78 78" style="background-color:#ffffff00" version="1.1"
	xmlns="http://www.w3.org/2000/svg" xmlns:xlink="http://www.w3.org/1999/xlink" xml:space="preserve"
	x="0px" y="0px" width="78px" height="78px"
>
	<g id="Layer%201">
		<path d="M 39.5 9.0625 C 31.2701 9.0625 23.4196 11.9375 18.1964 18.1963 C 12.9375 23.2954 10.0625 29.9375 10.0625 38.4258 C 10.0625 46.9129 12.9375 54.651 18.1964 59.8036 C 23.4196 66.0625 31.2701 68.9375 39.5 68.9375 C 47.5348 68.9375 54.7514 66.0625 59.8037 59.8036 C 66.0625 54.651 68.9375 46.9129 68.9375 38.4258 C 68.9375 29.9375 66.0625 23.2954 59.8037 18.1963 C 54.7514 11.9375 47.5348 9.0625 39.5 9.0625 L 39.5 9.0625 ZM 39.9375 18.0625 L 39.9375 11.9375 C 41.263 11.9375 42.5 12.0313 43.7371 12.314 L 42.7651 18.2632 C 41.7931 18.1293 40.9095 18.0625 39.9375 18.0625 L 39.9375 18.0625 ZM 44.0022 18.3972 L 44.9742 12.5024 C 45.9311 12.7852 46.8666 13.1621 47.802 13.5391 L 46.332 18.9999 C 45.6638 18.732 44.8859 18.5981 44.0022 18.3972 L 44.0022 18.3972 ZM 47.2007 19.2678 L 48.6707 14.0103 C 49.745 14.4814 50.7947 15.1411 51.8445 15.7065 L 49.1797 20.2653 C 48.537 19.8705 47.8689 19.5357 47.2007 19.2678 L 47.2007 19.2678 ZM 50.1487 20.8386 L 52.8135 16.3662 C 53.7825 17.1201 54.7514 17.874 55.6397 18.5311 L 52.2482 22.3127 C 51.6022 21.8213 50.8755 21.3299 50.1487 20.8386 L 50.1487 20.8386 ZM 53.1365 23.0497 L 56.5279 19.1339 C 56.9317 19.4687 57.4162 19.8036 57.8199 20.1834 C 58.1964 20.5929 58.5313 21.0842 58.8661 21.4937 L 54.9937 24.9333 C 54.6707 24.6057 54.3477 24.2781 54.1055 23.9505 C 53.7825 23.7048 53.4595 23.3773 53.1365 23.0497 L 53.1365 23.0497 ZM 55.7204 25.8341 L 59.4689 22.3945 C 60.126 23.2954 60.8799 24.2781 61.6338 25.2608 L 57.1739 27.7353 C 56.6894 27.1848 56.2049 26.4892 55.7204 25.8341 L 55.7204 25.8341 ZM 57.7392 28.4694 L 62.2934 26.2436 C 62.8589 27.2459 63.5185 28.0412 63.9897 28.8976 L 58.7322 30.3548 C 58.4643 29.6317 58.1294 29.0199 57.7392 28.4694 L 57.7392 28.4694 ZM 59.0001 31.4365 L 64.4609 29.6928 C 64.8379 30.7709 65.2148 31.9358 65.4975 33.1006 L 59.6028 34.0159 C 59.4019 33.1839 59.2679 32.2686 59.0001 31.4365 L 59.0001 31.4365 ZM 59.7367 35.1808 L 65.686 34.2655 C 65.9687 35.5823 66.0625 36.7796 66.0625 38.0625 L 59.9375 38.0625 C 59.9375 37.1217 59.8707 36.2665 59.7367 35.3257 L 59.7367 35.1808 L 59.7367 35.1808 ZM 59.9375 38.9375 L 66.0625 38.9375 C 66.0625 40.1911 65.9687 41.3602 65.686 42.5294 L 59.7367 41.6108 C 59.8707 40.6921 59.9375 39.857 59.9375 38.9375 L 59.9375 38.9375 ZM 59.6028 42.7799 L 65.4975 43.6985 C 65.2148 44.8677 64.8379 46.0369 64.4609 47.206 L 59.0001 45.3688 C 59.2679 44.5337 59.4019 43.615 59.6028 42.7799 L 59.6028 42.7799 ZM 58.7322 46.4544 L 63.9897 48.2917 C 63.5185 49.4608 62.8589 50.5465 62.2934 51.6321 L 57.7392 48.8763 C 58.1294 48.1246 58.4643 47.2895 58.7322 46.4544 L 58.7322 46.4544 ZM 57.1739 49.8784 L 61.6338 52.6343 C 60.8799 53.6364 60.126 54.6385 59.4689 55.5572 L 55.7204 52.0497 C 56.2049 51.3816 56.6894 50.63 57.1739 49.8784 L 57.1739 49.8784 ZM 54.9937 52.9683 L 58.8661 56.4758 C 58.5313 56.8933 58.1964 57.3944 57.8199 57.812 C 57.4162 58.1963 56.9317 58.5311 56.5279 58.866 L 53.1365 54.8891 C 53.4595 54.555 53.7825 54.221 54.1055 53.9704 C 54.3477 53.6364 54.6707 53.3024 54.9937 52.9683 L 54.9937 52.9683 ZM 52.2482 55.6407 L 55.6397 59.4687 C 54.7514 60.1255 53.7825 60.8794 52.8135 61.6333 L 50.1487 57.1439 C 50.8755 56.6428 51.6022 56.1417 52.2482 55.6407 L 52.2482 55.6407 ZM 49.1797 57.7285 L 51.8445 62.293 C 50.7947 62.8584 49.745 63.5181 48.6707 63.9892 L 47.2007 58.732 C 47.8689 58.4642 48.537 58.1293 49.1797 57.7285 L 49.1797 57.7285 ZM 46.332 58.9999 L 47.802 64.4604 C 46.8666 64.8374 45.9311 65.2143 44.9742 65.4971 L 44.0022 59.6027 C 44.8859 59.4017 45.6638 59.2678 46.332 58.9999 L 46.332 58.9999 ZM 42.7651 59.7366 L 43.7371 65.6855 C 42.5 65.9682 41.263 66.0625 39.9375 66.0625 L 39.9375 59.9375 C 40.9095 59.9375 41.7931 59.8705 42.7651 59.7366 L 42.7651 59.7366 ZM 39.0625 59.9375 L 39.0625 66.0625 C 37.5895 66.0625 36.2144 65.9682 34.8684 65.6855 L 35.9197 59.7366 C 37.0001 59.8705 37.9823 59.9375 39.0625 59.9375 L 39.0625 59.9375 ZM 34.6608 59.6027 L 33.8996 65.4971 C 32.9308 65.2143 31.9621 64.8374 30.9785 64.4604 L 32.5157 58.9999 C 33.2076 59.2678 33.9688 59.4017 34.6608 59.6027 L 34.6608 59.6027 ZM 31.6161 58.732 L 29.8744 63.9892 C 28.6853 63.5181 27.5812 62.8584 26.4771 62.293 L 29.2798 57.7285 C 30.0442 58.1293 30.8935 58.4642 31.6161 58.732 L 31.6161 58.732 ZM 28.2607 57.1439 L 25.458 61.6333 C 24.4388 60.8794 23.4196 60.1255 22.4854 59.4687 L 26.0525 55.6407 C 26.7319 56.1417 27.4963 56.6428 28.2607 57.1439 L 28.2607 57.1439 ZM 25.1183 54.8891 L 21.5512 58.866 C 21.1265 58.5311 20.6169 58.1963 20.1923 57.812 C 19.8037 57.3944 19.4689 56.8933 19.134 56.4758 L 23.1649 52.9683 C 23.5046 53.3024 23.8443 53.6364 24.0991 53.9704 C 24.4388 54.221 24.7785 54.555 25.1183 54.8891 L 25.1183 54.8891 ZM 22.4005 52.0497 L 18.5313 55.5572 C 17.9046 54.6385 17.2738 53.6364 16.6431 52.6343 L 20.8717 49.8784 C 21.3813 50.63 21.8909 51.3816 22.4005 52.0497 L 22.4005 52.0497 ZM 20.2772 48.8763 L 16.0912 51.6321 C 15.6181 50.5465 15.0662 49.4608 14.672 48.2917 L 19.268 46.4544 C 19.5358 47.2895 19.8707 48.1246 20.2772 48.8763 L 20.2772 48.8763 ZM 19.0001 45.3688 L 14.2778 47.206 C 13.9624 46.0369 13.6471 44.8677 13.4106 43.6985 L 18.3973 42.7799 C 18.5983 43.615 18.7322 44.5337 19.0001 45.3688 L 19.0001 45.3688 ZM 18.2634 41.6108 L 13.2529 42.5294 C 13.0163 41.3602 12.9375 40.1911 12.9375 38.9375 L 18.0625 38.9375 C 18.0625 39.857 18.1295 40.6921 18.2634 41.6108 L 18.2634 41.6108 ZM 18.0625 38.0625 L 12.9375 38.0625 C 12.9375 36.7796 13.0163 35.5823 13.2529 34.3849 L 18.2634 35.3257 C 18.1295 36.2665 18.0625 37.1217 18.0625 38.0625 L 18.0625 38.0625 ZM 18.3973 34.1283 L 13.4106 33.1875 C 13.6471 31.9902 13.9624 30.7928 14.2778 29.6928 L 19.0001 31.477 C 18.7322 32.3323 18.5983 33.2731 18.3973 34.1283 L 18.3973 34.1283 ZM 19.268 30.3652 L 14.672 28.8976 C 15.0662 28.0412 15.6181 27.2459 16.0912 26.2436 L 20.2772 28.4694 C 19.8707 29.0199 19.5358 29.6317 19.268 30.3652 L 19.268 30.3652 ZM 20.8717 27.7353 L 16.6431 25.2608 C 17.2738 24.2781 17.9046 23.2954 18.5313 22.3945 L 22.4005 25.8341 C 21.8909 26.4892 21.3813 27.1848 20.8717 27.7353 L 20.8717 27.7353 ZM 23.1649 24.9333 L 19.134 21.4937 C 19.4689 21.0842 19.8037 20.5929 20.1923 20.1834 C 20.6169 19.8036 21.1265 19.4687 21.5512 19.1339 L 25.1183 23.0497 C 24.7785 23.3773 24.4388 23.7048 24.0991 23.9505 C 23.8443 24.2781 23.5046 24.6057 23.1649 24.9333 L 23.1649 24.9333 ZM 26.0525 22.3127 L 22.4854 18.5311 C 23.4196 17.874 24.4388 17.1201 25.458 16.3662 L 28.2607 20.8386 C 27.4963 21.3299 26.7319 21.8213 26.0525 22.3127 L 26.0525 22.3127 ZM 29.2798 20.2653 L 26.4771 15.7065 C 27.5812 15.1411 28.6853 14.4814 29.8744 14.0103 L 31.6161 19.2678 C 30.8935 19.5357 30.0442 19.8705 29.2798 20.2653 L 29.2798 20.2653 ZM 32.5157 18.9999 L 30.9785 13.5391 C 31.9621 13.1621 32.9308 12.7852 33.8996 12.5024 L 34.6608 18.3972 C 33.9688 18.5981 33.2076 18.732 32.5157 18.9999 L 32.5157 18.9999 ZM 35.9197 18.2632 L 34.8684 12.314 C 36.2144 12.0313 37.5895 11.9375 39.0625 11.9375 L 39.0625 18.0625 C 37.9823 18.0625 37.0001 18.1293 35.9197 18.2632 L 35.9197 18.2632 ZM 52.4905 25.5884 C 55.9627 28.5917 58.0625 33.102 58.0625 38.5 C 58.0625 43.7821 55.9627 48.7092 52.4905 52.3002 C 49.0182 55.8912 45.0625 58.0625 39.5 58.0625 C 33.8304 58.0625 29.4497 55.8912 25.7977 52.3002 C 22.1457 48.7092 19.9375 43.7821 19.9375 38.5 C 19.9375 33.102 22.1457 28.5917 25.7977 25.5884 C 29.4497 22.067 33.8304 19.9375 39.5 19.9375 C 45.0625 19.9375 49.0182 22.067 52.4905 25.5884 L 52.4905 25.5884 ZM 31.0625 49.1268 L 34.9375 49.1268 L 34.9375 39.9375 L 36.1161 39.9375 C 37.393 39.9375 38.277 40.0175 38.8663 40.1801 C 39.3125 40.3427 39.6875 40.6678 40.0259 41.1555 C 40.4677 41.5619 41.3513 42.6999 42.6768 44.4069 L 45.9311 49.3652 L 50.714 49.3652 L 48.1361 44.9758 C 47.2675 43.1876 46.5325 41.9684 45.9979 41.3181 C 45.5302 40.5865 44.7975 39.9375 43.6488 39.4801 C 45.6638 39.2841 46.8666 38.6961 47.6684 37.8467 C 48.537 36.8618 48.9375 35.1557 48.9375 33.0482 C 48.9375 31.3421 48.6707 29.9375 48.0693 29.1423 C 47.5348 28.347 46.8666 27.7965 45.9311 27.4906 C 45.0625 27.1848 43.1186 27.0625 40.4677 27.0625 L 31.0625 27.0625 L 31.0625 49.1268 L 31.0625 49.1268 ZM 34.9375 37.0625 L 34.9375 29.9375 L 39.1875 29.9375 C 40.9095 29.9375 42.0582 29.9375 42.5 30.0375 C 43.2953 30.1379 43.9139 30.5393 44.3557 31.1414 C 44.7975 31.7436 45.0625 32.4461 45.0625 33.3493 C 45.0625 34.2525 44.8859 34.955 44.5324 35.4568 C 44.179 36.0589 43.7371 36.4604 43.1186 36.6611 C 42.5884 36.8618 41.0862 37.0625 39.0625 37.0625 L 34.9375 37.0625 L 34.9375 37.0625 ZM 39.5 1.1225 C 28.7703 1.1225 18.9331 4.9922 12.3898 11.3899 C 5.3819 18.933 1.0625 28.1023 1.0625 39.0881 C 1.0625 49.609 5.3819 59.0669 12.3898 66.6102 C 18.9331 73.0074 28.7703 76.8775 39.5 76.8775 C 49.6642 76.8775 59.067 73.0074 66.6101 66.6102 C 73.0417 59.0669 76.9375 49.609 76.9375 39.0881 C 76.9375 28.1023 73.0417 18.933 66.6101 11.3899 C 59.067 4.9922 49.6642 1.1225 39.5 1.1225 L 39.5 1.1225 ZM 65.8745 12.1255 C 72.035 19.4017 76.0625 28.347 76.0625 39.0881 C 76.0625 49.2839 72.035 58.5981 65.8745 65.874 C 58.5982 72.009 49.3412 76.0025 39.5 76.0025 C 29.11 76.0025 19.4019 72.009 13.0952 65.874 C 6.53 58.5981 1.9375 49.2839 1.9375 39.0881 C 1.9375 28.347 6.53 19.4017 13.0952 12.1255 C 19.4019 5.9906 29.11 1.9975 39.5 1.9975 C 49.3412 1.9975 58.5982 5.9906 65.8745 12.1255 L 65.8745 12.1255 Z" fill="#ffffff"/>
	</g>
</svg>