<?xml version="1.0" standalone="no"?>
<!-- Generator: Adobe Fireworks 10, Export SVG Extension by Aaron Beall (http://fireworks.abeall.com) . Version: 0.6.1  -->
<!DOCTYPE svg PUBLIC "-//W3C//DTD SVG 1.1//EN" "http://www.w3.org/Graphics/SVG/1.1/DTD/svg11.dtd">
<svg id="Right%20Bumper.fw-Page%201" viewBox="0 0 78 78" style="background-color:#ffffff00" version="1.1"
	xmlns="http://www.w3.org/2000/svg" xmlns:xlink="http://www.w3.org/1999/xlink" xml:space="preserve"
	x="0px" y="0px" width="78px" height="78px"
>
	<g id="Layer%201">
		<path d="M 2.5416 23.9271 C 2.2678 24.2748 2.0625 24.7093 2.0625 25.2308 L 2.0625 55.6256 C 2.0625 57.2222 2.6101 58.6102 3.5 59.5 C 4.3898 60.3899 5.7384 60.9375 7.2602 60.9375 L 71.6459 60.9375 C 73.2277 60.9375 74.6101 60.3899 75.4999 59.5 C 76.3898 58.6102 76.9375 57.2222 76.9375 55.6256 L 76.9375 29.2476 C 76.9375 28.5394 76.5267 27.9099 75.9106 27.6738 C 66.5675 24.9701 55.495 22.1888 45.4994 20.1029 C 36.9517 18.5599 29.2 17.4632 23.359 17.189 C 21.4819 17.1077 19.8163 17.0625 18.3224 17.0625 C 14.7806 17.0625 12.2041 17.3163 10.0635 17.943 C 6.9398 18.9026 4.8005 20.6244 2.5416 23.9271 L 2.5416 23.9271 ZM 11.1047 20.8851 C 12.93 20.2249 15.2137 19.9377 18.3779 19.9377 C 19.7955 19.9377 21.3898 19.9953 23.1988 20.1029 C 28.8 20.4505 36.4931 21.7543 44.868 23.6664 C 54.3295 25.6654 64.8192 28.0672 74.0625 30.5066 L 74.0625 55.6256 C 74.0625 56.2979 73.8104 56.8861 73.3942 57.3903 C 72.8947 57.8104 72.3119 58.0625 71.6459 58.0625 L 7.2602 58.0625 C 6.6195 58.0625 6.0588 57.8104 5.5782 57.3903 C 5.1778 56.8861 4.9375 56.2979 4.9375 55.6256 L 4.9375 25.9261 C 7.0199 23.3187 8.782 21.7543 11.1047 20.8851 L 11.1047 20.8851 ZM 24.0799 55.4576 L 29.9201 55.4576 L 29.9201 42.9375 L 30.9901 42.9375 C 32.2894 42.9375 33.2066 43.0211 33.8181 43.2732 C 34.3531 43.4413 34.9645 43.8614 35.4995 44.4496 C 35.9581 45.1219 36.9517 46.5504 38.4039 48.9032 L 42.4215 55.4576 L 49.3344 55.4576 L 45.7361 49.5755 C 44.3945 47.2226 43.3686 45.626 42.5005 44.7017 C 41.7113 43.7774 40.6969 42.9375 39.5504 42.3257 C 41.948 41.9858 43.8421 41.2381 45.0258 40.0824 C 46.2885 38.7934 46.9201 36.8202 46.9201 34.3986 C 46.9201 32.515 46.5253 30.8214 45.6572 29.5623 C 44.868 28.3033 43.7632 27.359 42.4215 26.8869 C 41.0026 26.3361 38.9389 26.1 35.9581 26.1 L 24.0799 26.1 L 24.0799 55.4576 L 24.0799 55.4576 ZM 29.9201 39.0625 L 29.9201 30.9001 L 34.2002 30.9001 C 36.4167 30.9001 37.7925 30.9001 38.2511 30.9903 C 39.0918 31.1697 39.7797 31.5284 40.3147 32.246 C 40.7733 32.8738 41.0799 33.7707 41.0799 34.847 C 41.0799 35.8336 40.8497 36.6408 40.4676 37.2687 C 40.0854 37.8965 39.6268 38.345 38.9389 38.614 C 38.2511 38.8831 36.646 39.0625 33.9709 39.0625 L 29.9201 39.0625 L 29.9201 39.0625 Z" fill="#ffffff"/>
	</g>
</svg>