<?xml version="1.0" standalone="no"?>
<!-- Generator: Adobe Fireworks 10, Export SVG Extension by Aaron Beall (http://fireworks.abeall.com) . Version: 0.6.1  -->
<!DOCTYPE svg PUBLIC "-//W3C//DTD SVG 1.1//EN" "http://www.w3.org/Graphics/SVG/1.1/DTD/svg11.dtd">
<svg id="Right%20Trigger.fw-Page%201" viewBox="0 0 78 78" style="background-color:#ffffff00" version="1.1"
	xmlns="http://www.w3.org/2000/svg" xmlns:xlink="http://www.w3.org/1999/xlink" xml:space="preserve"
	x="0px" y="0px" width="78px" height="78px"
>
	<g id="Layer%201">
		<path d="M 11.5 72.7975 L 67.2793 72.7975 C 68.0467 72.7975 68.6745 72.1814 68.7443 71.4285 C 68.8471 67.0589 68.9375 62.4649 68.9375 58.0316 C 68.9375 44.6652 68.0868 33.8802 63.7013 24.6525 C 57.2109 12.1963 44.8413 5.2025 21.3047 5.2025 C 20.9378 5.2025 20.568 5.2043 20.1953 5.2076 C 19.8144 5.2076 19.4336 5.3444 19.1289 5.5495 C 15.4579 8.0116 13.0215 16.1593 11.8422 28.1497 C 10.3363 41.6077 10.0625 56.956 10.0625 71.36 C 10.0625 72.1814 10.6785 72.7975 11.5 72.7975 L 11.5 72.7975 ZM 12.9375 69.9225 C 13.0215 52.8303 13.6936 38.9278 15.0379 28.5661 C 16.3821 17.9911 18.2148 10.7469 20.7285 8.0823 C 20.9854 8.0804 21.2407 8.0775 21.4945 8.0775 C 43.3596 8.0775 54.6077 14.9605 60.5323 26.1513 C 65.0445 34.5577 66.0625 44.8347 66.0625 57.5346 C 66.0625 61.539 65.964 65.6813 65.8425 69.9225 L 12.9375 69.9225 L 12.9375 69.9225 ZM 18.0625 58.1347 L 22.9375 58.1347 L 22.9375 46.9375 L 23.95 46.9375 C 25.1182 46.9375 25.9749 47.0206 26.52 47.2732 C 26.9873 47.4416 27.5325 47.7784 27.9998 48.3678 C 28.467 48.873 29.3237 50.2201 30.6477 52.3251 L 34.1705 58.1347 L 40.1286 58.1347 L 36.9775 52.9145 C 35.8695 50.8095 34.983 49.3781 34.2444 48.5362 C 33.6534 47.7784 32.7505 47.0206 31.6602 46.4057 C 33.8012 46.0258 35.3524 45.3421 36.3865 44.1265 C 37.4207 42.9859 37.9375 41.4546 37.9375 39.6169 C 37.9375 38.1621 37.5684 36.8658 36.9036 35.8611 C 36.2388 34.7847 35.2785 34.067 34.1705 33.6365 C 33.0625 33.2776 31.115 33.0625 28.467 33.0625 L 18.0625 33.0625 L 18.0625 58.1347 L 18.0625 58.1347 ZM 22.9375 43.0625 L 22.9375 36.9375 L 26.8315 36.9375 C 28.8564 36.9375 30.1025 36.9375 30.4919 37.0136 C 31.2708 37.0901 31.8938 37.473 32.3611 37.9324 C 32.8284 38.4684 33.0625 39.0809 33.0625 39.9232 C 33.0625 40.6889 32.9063 41.3014 32.5168 41.7608 C 32.2053 42.2202 31.738 42.6031 31.115 42.8328 C 30.5698 42.9859 29.0122 43.0625 26.6758 43.0625 L 22.9375 43.0625 L 22.9375 43.0625 ZM 49.0625 58.1347 L 53.9375 58.1347 L 53.9375 36.9375 L 61.9884 36.9375 L 61.9884 33.0625 L 41.1399 33.0625 L 41.1399 36.9375 L 49.0625 36.9375 L 49.0625 58.1347 L 49.0625 58.1347 Z" fill="#ffffff"/>
	</g>
</svg>