<?xml version="1.0" standalone="no"?>
<!-- Generator: Adobe Fireworks 10, Export SVG Extension by Aaron Beall (http://fireworks.abeall.com) . Version: 0.6.1  -->
<!DOCTYPE svg PUBLIC "-//W3C//DTD SVG 1.1//EN" "http://www.w3.org/Graphics/SVG/1.1/DTD/svg11.dtd">
<svg id="View.fw-Page%201" viewBox="0 0 78 78" style="background-color:#ffffff00" version="1.1"
	xmlns="http://www.w3.org/2000/svg" xmlns:xlink="http://www.w3.org/1999/xlink" xml:space="preserve"
	x="0px" y="0px" width="78px" height="78px"
>
	<g id="Layer%201">
		<path d="M 38.9996 5.2025 C 30.0984 5.2025 21.6501 8.4891 15.4547 14.7385 C 9.3398 21.0702 6.0625 29.7043 6.0625 39 C 6.0625 48.3245 9.3398 56.3443 15.4547 62.9615 C 21.6501 69.4928 30.0984 72.7975 38.9996 72.7975 C 47.9973 72.7975 56.8237 69.4928 63.0224 62.9615 C 69.6279 56.3443 72.9375 48.3245 72.9375 39 C 72.9375 29.7043 69.6279 21.0702 63.0224 14.7385 C 56.8237 8.4891 47.9973 5.2025 38.9996 5.2025 L 38.9996 5.2025 ZM 60.415 17.2054 C 66.4121 22.797 70.0625 30.6089 70.0625 39 C 70.0625 47.4141 66.4121 54.5396 60.415 60.3834 C 55.3443 66.3131 47.0258 69.9225 38.9996 69.9225 C 30.9834 69.9225 23.3398 66.3131 17.8685 60.3834 C 12.3168 54.5396 8.9375 47.4141 8.9375 39 C 8.9375 30.6089 12.3168 22.797 17.8685 17.2054 C 23.3398 11.5316 30.9834 8.0776 38.9996 8.0776 C 47.0258 8.0776 55.3443 11.5316 60.415 17.2054 L 60.415 17.2054 ZM 58.9375 34.0625 L 31.0625 34.0625 L 31.0625 53.9375 L 58.9375 53.9375 L 58.9375 34.0625 L 58.9375 34.0625 ZM 55.0625 37.9375 L 55.0625 50.0625 L 34.9375 50.0625 L 34.9375 37.9375 L 55.0625 37.9375 L 55.0625 37.9375 ZM 46.9375 23.1563 L 19.0625 24.0625 L 19.0625 43.9375 L 28.9375 43.9375 L 28.9375 40.0625 L 22.9375 40.0625 L 22.9375 27.9375 L 43.0625 27.9375 L 43.0625 31.8438 L 46.9375 31.8438 L 46.9375 23.1563 L 46.9375 23.1563 Z" fill="#ffffff"/>
	</g>
</svg>