<?xml version="1.0" standalone="no"?>
<!-- Generator: Adobe Fireworks 10, Export SVG Extension by Aaron Beall (http://fireworks.abeall.com) . Version: 0.6.1  -->
<!DOCTYPE svg PUBLIC "-//W3C//DTD SVG 1.1//EN" "http://www.w3.org/Graphics/SVG/1.1/DTD/svg11.dtd">
<svg id="Xbox.fw-Page%201" viewBox="0 0 78 78" style="background-color:#ffffff00" version="1.1"
	xmlns="http://www.w3.org/2000/svg" xmlns:xlink="http://www.w3.org/1999/xlink" xml:space="preserve"
	x="0px" y="0px" width="78px" height="78px"
>
	<g id="Layer%201">
		<path d="M 38.9462 4.9564 C 29.5616 4.9564 21.0668 8.7454 14.8374 14.8708 C 8.791 21.044 5.0625 29.4442 5.0625 38.7244 C 5.0625 48.0046 8.791 56.4048 14.8374 62.5649 C 21.0668 68.6451 29.5616 72.4052 38.9462 72.4052 C 48.3308 72.4052 56.8256 68.6451 63.055 62.5649 C 69.1454 56.4048 72.9055 48.0046 72.9055 38.7244 C 72.9055 29.4442 69.1454 21.044 63.055 14.8708 C 56.8256 8.7454 48.3308 4.9564 38.9462 4.9564 L 38.9462 4.9564 ZM 17.9117 60.8049 L 17.2644 60.1649 C 16.0509 59.0449 14.9992 57.7648 14.0284 56.4048 C 13.9669 56.116 13.9375 55.7751 13.9375 55.3922 C 13.9375 53.7598 14.4709 51.3622 15.3228 48.9646 C 17.588 42.8845 23.5748 33.1243 29.2379 26.2441 L 30.4515 24.8041 L 28.2671 22.804 C 24.3838 19.364 21.9568 17.6839 19.6106 16.8839 C 18.8825 16.6439 18.3971 16.5633 17.9926 16.5633 C 19.8533 14.8708 21.8759 13.42 24.0602 12.1305 L 24.5456 12.1305 C 25.3546 12.1305 26.73 12.2111 27.4581 12.2917 C 29.7234 12.6946 33.7685 14.1454 36.3573 15.4349 C 37.6518 16.0797 38.7844 16.6439 38.8653 16.6439 C 39.0271 16.6439 40.2406 16.1603 41.616 15.4349 C 46.0303 13.3119 50.0867 12.1162 53.0441 12.1162 C 53.2303 12.1162 53.4122 12.1209 53.5895 12.1305 L 53.8322 12.1305 C 56.0165 13.3394 58.0391 14.8708 59.8189 16.5633 C 58.8481 16.7239 56.9874 17.4439 55.6929 18.2439 C 53.8322 19.364 52.0523 20.724 49.5444 23.044 L 47.6027 24.8041 L 49.4635 26.9641 C 55.0457 34.0043 61.2752 44.3245 63.055 49.9247 C 63.7066 51.8577 64.0958 53.7907 64.0958 55.2221 C 64.0958 55.568 64.0731 55.8846 64.0258 56.1648 C 63.055 57.6048 61.9224 58.9649 60.628 60.1649 C 60.5471 60.2449 60.4662 60.4049 60.3044 60.4849 C 60.3569 60.2325 60.383 59.9595 60.383 59.6669 C 60.383 56.8057 57.8898 52.0732 53.2659 46.4846 C 49.7062 42.1645 40.3215 33.1243 39.108 32.8843 C 39.0991 32.8817 39.0889 32.8805 39.0775 32.8805 C 38.366 32.8805 32.8957 37.75 28.9143 41.8445 C 21.8759 49.2846 17.7498 55.7648 17.7498 59.5249 C 17.7498 60.0049 17.7498 60.4049 17.9117 60.8049 L 17.9117 60.8049 Z" fill="#ffffff"/>
	</g>
</svg>