<?xml version="1.0" standalone="no"?>
<!-- Generator: Adobe Fireworks 10, Export SVG Extension by Aaron Beall (http://fireworks.abeall.com) . Version: 0.6.1  -->
<!DOCTYPE svg PUBLIC "-//W3C//DTD SVG 1.1//EN" "http://www.w3.org/Graphics/SVG/1.1/DTD/svg11.dtd">
<svg id="Y.fw-Page%201" viewBox="0 0 78 78" style="background-color:#ffffff00" version="1.1"
	xmlns="http://www.w3.org/2000/svg" xmlns:xlink="http://www.w3.org/1999/xlink" xml:space="preserve"
	x="0px" y="0px" width="78px" height="78px"
>
	<g id="Layer%201">
		<path d="M 40.0003 5.2025 C 30.5358 5.2025 21.9129 8.4861 15.5894 14.6869 C 9.3481 20.9692 6.0625 29.536 6.0625 39.0003 C 6.0625 48.4646 9.3481 57.0314 15.5894 63.3138 C 21.9129 69.5145 30.5358 72.7975 40.0003 72.7975 C 49.4644 72.7975 58.0873 69.5145 64.4108 63.3138 C 70.6521 57.0314 73.9375 48.4646 73.9375 39.0003 C 73.9375 29.536 70.6521 20.9692 64.4108 14.6869 C 58.0873 8.4861 49.4644 5.2025 40.0003 5.2025 L 40.0003 5.2025 ZM 61.9471 17.1345 C 67.6136 22.6826 71.0625 30.4335 71.0625 39.0003 C 71.0625 47.5671 67.6136 55.3181 61.9471 60.8661 C 56.3627 66.4957 48.5611 69.9225 40.0003 69.9225 C 31.4391 69.9225 23.6375 66.4957 18.0531 60.8661 C 12.3867 55.3181 8.9375 47.5671 8.9375 39.0003 C 8.9375 30.4335 12.3867 22.6826 18.0531 17.1345 C 23.6375 11.5049 31.4391 8.0776 40.0003 8.0776 C 48.5611 8.0776 56.3627 11.5049 61.9471 17.1345 L 61.9471 17.1345 ZM 36.1199 58.5 L 43.8801 58.5 L 43.8801 42.1007 L 58.2516 19.5006 L 49.1359 19.5006 L 40.2428 34.9209 L 31.0285 19.5006 L 21.7487 19.5006 L 36.1199 42.1007 L 36.1199 58.5 L 36.1199 58.5 Z" fill="#ffffff"/>
	</g>
</svg>